<svg width="33" height="35" viewBox="0 0 33 35" fill="none" xmlns="http://www.w3.org/2000/svg">
<mask id="mask0_337_136" style="mask-type:alpha" maskUnits="userSpaceOnUse" x="0" y="0" width="33" height="35">
<rect width="33" height="34.0968" fill="white"/>
</mask>
<g mask="url(#mask0_337_136)">
<path d="M26.9502 29.8348L18.2877 20.8844C17.6002 21.4527 16.8096 21.9026 15.9159 22.2341C15.0221 22.5655 14.0711 22.7313 13.0627 22.7313C10.5648 22.7313 8.45077 21.8374 6.72056 20.0497C4.99035 18.262 4.12524 16.0777 4.12524 13.4968C4.12524 10.9158 4.99035 8.73149 6.72056 6.94378C8.45077 5.15606 10.5648 4.26221 13.0627 4.26221C15.5607 4.26221 17.6747 5.15606 19.4049 6.94378C21.1351 8.73149 22.0002 10.9158 22.0002 13.4968C22.0002 14.5386 21.8398 15.5212 21.519 16.4447C21.1982 17.3682 20.7627 18.1851 20.2127 18.8954L28.8752 27.8458L26.9502 29.8348ZM13.0627 19.8899C14.7815 19.8899 16.2424 19.2683 17.4456 18.0252C18.6487 16.7821 19.2502 15.2726 19.2502 13.4968C19.2502 11.7209 18.6487 10.2114 17.4456 8.96827C16.2424 7.72516 14.7815 7.10361 13.0627 7.10361C11.344 7.10361 9.88306 7.72516 8.67993 8.96827C7.47681 10.2114 6.87524 11.7209 6.87524 13.4968C6.87524 15.2726 7.47681 16.7821 8.67993 18.0252C9.88306 19.2683 11.344 19.8899 13.0627 19.8899Z" fill="black"/>
</g>
</svg>
